<svg width="165" height="122" viewBox="0 0 165 122" fill="none" xmlns="http://www.w3.org/2000/svg">
<path d="M123.647 118.133C122.14 118.85 121.015 119.218 119.697 119.641C110.649 122.547 100.008 121.044 92.9447 114.248C81.5823 103.316 86.3108 86.6529 86.5785 72.7844C86.6121 71.0464 86.6142 66.9379 83.7442 68.1604C83.1606 68.4092 82.6615 68.8315 82.2862 69.3535C77.6542 75.7966 76.1374 84.5951 78.8424 92.1603C76.1325 91.0819 74.1202 88.5838 73.0578 85.8083C71.9953 83.032 71.7863 79.989 71.8576 77.0076C71.9024 75.1635 72.052 73.3251 72.1526 71.4845C72.2365 69.9472 72.5692 68.1303 71.6109 66.7916C70.2067 64.8306 67.3451 66.1685 66.1045 67.6671C65.0211 68.9778 64.176 81.8525 64.8449 81.8525H58.6248C58.1614 81.712 58.5354 80.8931 58.5459 80.5117C58.6402 76.847 58.7528 72.4367 58.5459 68.8136C58.397 66.2116 57.8965 63.9293 55.8206 62.263C55.446 61.9625 54.9154 61.9009 54.6862 61.5452C56.5699 61.1473 58.6248 60.9293 60.5113 61.4298C61.4039 61.6671 62.2616 62.0644 62.9458 62.7111C63.5477 63.2804 64.0292 64.9238 64.6632 65.0945C65.7089 63.061 67.7778 61.7403 69.7999 60.9078C70.2032 60.7415 75.9564 59.3089 75.8529 59.9585C75.6705 61.1079 78.3916 68.3554 78.9486 68.3691C81.1182 64.7682 87.0161 56.0952 91.2707 62.0235C93.5535 65.2042 93.1523 70.2907 93.1271 74.0084C93.0866 80.0808 92.4401 86.0485 91.9214 92.085C91.4622 97.4268 91.7998 102.833 94.9696 107.319C98.0297 111.653 102.848 114.201 107.717 115.784C110.054 116.543 112.442 117.067 114.866 117.428C117.541 117.827 122.119 118.133 123.647 118.133V118.133Z" fill="white"/>
<path d="M0.0192501 97.4894C-0.18974 97.3001 1.36755 95.8474 1.56606 95.5714C2.34191 94.4901 3.17298 92.2502 3.17298 90.9294V84.0095L6.96346 87.5917L10.705 84.1895C10.6889 87.3716 10.8483 90.5659 10.3562 93.7143C10.3101 94.0112 14.3585 92.8037 14.7185 92.6001C16.064 91.8408 17.081 90.7459 18.0323 89.532C20.1459 86.8324 21.0784 82.7562 21.8465 79.4278C23.5548 72.0268 23.5988 64.2221 21.9597 56.8039C20.9805 52.3713 19.6958 47.3336 15.3287 45.2098C14.6101 44.8606 12.9431 44.2891 12.1966 44.2891H8.95551C10.5876 46.9915 11.1468 50.2647 11.1356 53.4031C11.1321 54.3079 10.8756 63.3402 11.058 63.3402H3.34912C3.23379 59.8705 3.46445 56.3995 3.37987 52.9306C3.31067 50.0632 3.50569 44.4676 0.195389 43.2079C0.0548973 43.0014 1.15087 42.5532 1.32701 42.4844C5.53688 40.8396 11.9331 40.1369 16.3506 40.9263C20.9455 41.7473 24.7416 44.6139 27.1796 48.6543C28.8788 51.4707 29.8944 54.6751 30.5137 57.9253C31.9018 65.2123 31.3461 72.8141 29.4359 79.9756C28.5601 83.2595 27.3893 86.4918 25.5944 89.3556C23.0823 93.3623 18.5285 97.4887 13.5987 97.4887H0.0192501V97.4894Z" fill="white"/>
<path d="M116.289 69.5316C115.768 69.9862 115.166 70.3497 114.574 70.7054C113.991 71.0545 111.507 72.0878 111.329 72.6771C111.958 70.5899 111.878 68.4568 111.412 66.3452C110.941 64.2063 107.486 65.7608 106.382 66.6815C104.637 68.1392 104.757 69.5287 104.609 71.6927C104.404 74.6382 104.607 77.669 104.265 80.5966H97.958C98.2508 78.7832 98.0768 76.9484 98.1348 75.1164C98.2348 71.9157 98.6779 68.6189 98.3046 65.4109C98.0998 63.637 97.6567 62.0575 96.5558 60.6478C99.9039 59.8914 103.273 60.1681 104.878 63.6973C104.73 63.3732 107.69 61.2537 108.034 61.03C109.111 60.3295 110.335 59.748 111.631 59.7164C114.053 59.6569 116.253 61.7025 117.251 63.8364C117.932 65.2905 118.026 67.1031 117.196 68.4726C116.947 68.8834 116.636 69.2283 116.288 69.5323L116.289 69.5316Z" fill="white"/>
<path d="M52.932 87.0648H46.6245L46.9747 76.8201C41.8779 77.2876 37.8553 80.5127 37.5135 85.9864C35.4761 85.9864 33.4295 86.0452 31.3934 85.9563C31.5807 82.8753 32.525 79.5361 34.4101 77.0825C36.9642 73.7584 40.8252 74.5486 44.4801 74.0947C45.3287 73.9893 46.2303 73.7627 46.786 73.0973C47.3522 72.4198 47.4242 71.4389 47.3005 70.5555C47.1292 69.3409 46.6036 68.1349 45.6565 67.3849C44.7849 66.6937 43.6379 66.4506 42.537 66.4908C41.0678 66.5438 39.5552 66.9626 38.2153 67.5749C37.6023 67.8552 34.4276 69.262 34.3626 69.9919C34.5723 67.653 34.963 65.0116 37.0005 63.6234C39.2728 62.0754 42.797 61.699 45.4615 61.8295C47.8233 61.9449 50.2515 62.8139 51.7724 64.6703C55.2721 68.9422 53.4325 75.8772 53.1088 80.8676C52.976 82.919 52.9649 85.0113 52.932 87.0662V87.0648Z" fill="white"/>
<path d="M106.009 21.8485C97.2247 25.7111 96.8095 38.6517 106.524 41.0401C114.936 43.1087 118.113 34.8035 125.776 34.2177C127.333 34.0994 128.912 34.245 130.426 34.5827C126.677 25.3805 115.84 17.5263 106.009 21.8485ZM122.805 32.4273C119.327 32.4273 115.083 37.1058 111.718 38.1269C102.356 40.9684 98.2493 28.6931 106.542 24.3724C113.939 20.517 122.889 25.7835 126.747 32.428H122.805V32.4273Z" fill="white"/>
<path d="M53.9821 97.4888C53.2251 95.3105 52.9253 93.1487 52.747 90.8486L46.3969 90.8356C44.2308 93.8801 38.5469 94.0801 37.6885 89.7608H31.2056C31.3678 96.5847 37.8598 100.354 43.6989 96.9152L46.4486 94.7928V97.4888H53.9821ZM32.8419 92.6741C32.9293 92.2345 33.8114 91.6344 34.1972 91.5706C35.1918 91.4064 36.3724 92.7386 37.2754 93.0627C37.0595 93.4936 36.9595 93.1989 36.7295 93.1896C35.4239 93.138 34.1231 92.9272 32.8419 92.6741ZM35.0401 94.8767C36.703 94.5914 38.3504 95.2388 39.9343 95.6776C38.5839 96.8414 36.1885 96.0103 35.0401 94.8767Z" fill="white"/>
<path d="M113.339 45.5445C111.002 49.957 112.468 54.9123 118.059 54.1587C121.759 53.6611 123.026 48.5316 124.553 45.7237C125.527 43.9319 127.102 41.5952 129.024 40.871C124.013 36.9059 116.136 40.2673 113.339 45.5438V45.5445ZM122.751 44.773C121.613 46.858 121.063 50.413 118.755 51.4591C117.18 52.1747 115.109 51.7108 114.847 49.7555C114.169 44.6819 121.235 40.0715 125.695 41.0567C124.65 42.2462 123.524 43.359 122.751 44.7737V44.773Z" fill="white"/>
<path d="M104.265 84.3682H97.9573C97.568 88.7577 98.1369 93.3624 96.3804 97.4881H104.615C103.786 93.1838 104.059 88.7276 104.265 84.3682ZM101.987 85.8079L99.711 88.501C99.6509 86.8325 100.13 85.5677 101.987 85.8079ZM99.5362 94.6128C99.2133 92.2811 100.07 90.2369 101.641 88.5957C101.808 88.4214 101.867 88.2536 102.162 88.3232C102.015 90.6227 101.421 93.1623 99.5362 94.6128ZM102.503 95.6819L100.937 95.8698C100.638 95.5715 102.054 94.235 102.25 93.8973C102.622 93.8922 102.521 95.3657 102.503 95.6819Z" fill="white"/>
<path d="M58.3619 85.626L58.0117 97.4883H64.6693L64.8448 85.626H58.3619ZM60.1156 90.4788C61.4178 91.578 62.0238 93.2773 62.7423 94.7909C60.9998 94.5113 60.0366 92.1122 60.1156 90.4788ZM62.4655 90.6781C61.6456 89.6342 60.9467 88.4898 60.2903 87.3325C60.6706 87.111 61.6911 87.3992 61.9916 87.6559C62.7654 88.317 62.562 90.1052 62.917 91.0166C62.4585 91.1327 62.6095 90.8617 62.4655 90.6781Z" fill="white"/>
<path d="M3.17332 67.4743C3.88346 67.6958 6.694 71.2314 6.95681 71.258C7.52018 71.3146 9.41996 68.9822 10.0043 68.4602C10.3293 68.1698 10.7186 67.9267 11.0576 67.6542V71.8782L7.29092 75.5593C6.63319 74.7233 3.17332 72.0417 3.17332 71.159V67.4743Z" fill="white"/>
<path d="M3.17332 78.4377L7.13924 82.1992L10.8822 78.7977V82.4817L6.94004 86.3428L3.17332 82.6617V78.4377Z" fill="white"/>
<path d="M3.17242 72.8666L7.13835 76.8073L10.7059 73.4933L11.056 73.6776L10.7485 77.3136L7.26276 80.7524C6.79306 80.837 3.74278 77.4096 3.17172 76.9099V72.8659L3.17242 72.8666Z" fill="white"/>
<path d="M11.0569 64.4187V65.8563H3.34806L3.17332 64.4187H11.0569Z" fill="white"/>
<path d="M64.8438 82.9311H58.3609V84.3688H64.8438V82.9311Z" fill="white"/>
<path d="M104.267 81.6722H97.9591V83.1098H104.267V81.6722Z" fill="white"/>
<path d="M37.5131 87.0643H31.2056V88.5019H37.5131V87.0643Z" fill="white"/>
<path d="M52.9299 88.3245L52.7559 89.7614H46.6245C46.6672 89.3527 46.4323 88.3102 46.9104 88.156L52.9299 88.3238V88.3245Z" fill="white"/>
<path d="M10.0043 67.1146L7.11413 69.9877L4.39795 67.1146H10.0043Z" fill="white"/>
<path d="M131.515 20.1804C133.345 16.0017 139.489 15.4066 138.446 9.7486C137.318 3.6296 128.176 3.25676 124.828 7.93886C119.89 14.8473 126.11 23.6071 131.186 28.2641C130.512 25.5681 130.374 22.7861 131.516 20.1804H131.515ZM129.841 25.0217C128.476 23.6056 127.207 21.7837 126.311 20.0127C124.177 15.7952 123.357 9.11763 128.517 6.80813C131.398 5.51965 136.555 6.44532 136.946 10.2283C137.307 13.7266 134.095 14.5526 132.221 16.5488C130.008 18.907 129.593 21.8798 129.841 25.021V25.0217Z" fill="white"/>
<path d="M135.979 9.05026C134.703 6.82321 131.323 6.3464 129.111 7.19534C126.573 8.16761 125.289 10.3839 125.172 13.1121C125.005 17.0005 127.118 20.6221 129.251 23.6609L129.34 21.8375C129.584 19.3702 130.579 17.1712 132.419 15.5543C133.473 14.6272 135.268 13.888 135.915 12.5859C136.471 11.4652 136.612 10.1566 135.979 9.05097V9.05026ZM134.15 8.32894C134.502 8.45657 134.686 8.85308 134.562 9.21302C134.438 9.57439 134.052 9.76297 133.7 9.63534C133.348 9.50771 133.165 9.11192 133.289 8.75055C133.413 8.3906 133.799 8.20131 134.151 8.32894H134.15ZM131.637 7.52804C131.99 7.65566 132.173 8.05217 132.049 8.41283C131.925 8.77421 131.538 8.96278 131.186 8.83515C130.834 8.70752 130.651 8.31173 130.775 7.95036C130.9 7.58898 131.286 7.39969 131.637 7.52732V7.52804ZM129.02 8.58061C129.371 8.70824 129.555 9.10403 129.431 9.46469C129.306 9.82607 128.92 10.0146 128.569 9.88773C128.217 9.7601 128.033 9.36359 128.157 9.00293C128.282 8.64299 128.667 8.4537 129.02 8.58133V8.58061ZM126.429 11.4286C126.554 11.0672 126.94 10.8786 127.292 11.0063C127.644 11.1339 127.827 11.5297 127.703 11.8911C127.578 12.2524 127.193 12.4417 126.841 12.3141C126.489 12.1865 126.305 11.79 126.429 11.4293V11.4286ZM126.288 15.1097C125.937 14.9821 125.753 14.5863 125.877 14.2249C126.002 13.8636 126.388 13.675 126.739 13.8019C127.091 13.9295 127.275 14.326 127.151 14.6874C127.026 15.0488 126.64 15.2374 126.287 15.1097H126.288ZM126.592 17.3554C126.334 17.2615 126.198 16.9704 126.29 16.7051C126.381 16.4398 126.665 16.3007 126.923 16.3946C127.182 16.4886 127.318 16.7797 127.226 17.045C127.135 17.3103 126.851 17.4494 126.592 17.3554ZM129.157 17.7727C129.157 17.7727 129.157 17.772 129.157 17.7706C129.157 17.7003 129.15 15.9178 130.57 16.1064C130.57 16.1064 130.917 17.4565 129.157 17.7727H129.157ZM129.355 15.0897C129.355 15.0897 129.355 15.0889 129.355 15.0854C129.373 14.9943 129.701 13.4054 131.484 13.7051C131.735 13.7474 132.015 13.8263 132.329 13.9532C132.329 13.9532 131.525 15.811 129.354 15.0897H129.355ZM134.033 12.7278C134.026 12.7371 134.019 12.7465 134.012 12.7558C133.91 12.892 133.782 13.0118 133.627 13.0756C133.258 13.2276 132.786 12.9809 132.689 12.5866C132.557 12.0481 133.121 11.539 133.623 11.7211L133.632 11.7247C133.639 11.6846 133.643 11.6415 133.644 11.5921C133.667 10.893 132.961 10.5603 132.374 10.5259C131.401 10.4685 130.443 10.9539 129.779 11.6874C129.116 12.4202 128.725 13.3782 128.523 14.3562C128.324 15.3248 128.232 16.3961 128.317 17.3791C128.361 17.8946 128.428 18.4087 128.474 18.9243C128.496 19.1723 128.516 19.4204 128.525 19.6692C128.531 19.8449 128.451 20.2644 128.523 20.4128C127.601 18.5414 127.44 16.1093 127.915 14.0851C128.261 12.616 129.071 11.2185 130.319 10.4147C130.9 10.0405 131.579 9.79954 132.264 9.83252C132.949 9.8655 133.635 10.1975 134.019 10.7804C134.397 11.3533 134.43 12.1707 134.033 12.7278ZM135.23 11.6645C134.933 11.5562 134.776 11.2207 134.882 10.9159C134.987 10.6098 135.315 10.4499 135.612 10.5574C135.909 10.665 136.066 11.0013 135.96 11.3074C135.855 11.6121 135.528 11.7728 135.23 11.6645Z" fill="white"/>
<path d="M124.733 30.9875C120.635 25.5324 112.054 21.4741 105.913 25.883C100.002 30.1263 103.499 39.0503 110.838 37.4055C113.379 36.8354 115.078 35.0063 117.228 33.7157C119.588 32.2996 122.205 31.28 124.993 31.5267C125.072 31.2155 124.868 31.1674 124.733 30.9875ZM118.007 26.7714C118.319 26.7714 118.573 27.0317 118.573 27.3522C118.573 27.6727 118.32 27.933 118.007 27.933C117.695 27.933 117.441 27.6741 117.441 27.3522C117.441 27.0303 117.695 26.7714 118.007 26.7714ZM115.504 25.9139C115.901 25.9139 116.226 26.2444 116.226 26.6524C116.226 27.0604 115.901 27.3931 115.504 27.3931C115.106 27.3931 114.782 27.0625 114.782 26.6524C114.782 26.2423 115.106 25.9139 115.504 25.9139ZM112.195 25.7482C112.748 25.7482 113.194 26.2064 113.194 26.7729C113.194 27.3393 112.748 27.7953 112.195 27.7953C111.643 27.7953 111.199 27.3372 111.199 26.7729C111.199 26.2086 111.645 25.7482 112.195 25.7482ZM104.704 31.6471C104.297 31.6471 103.967 31.3094 103.967 30.8907C103.967 30.4719 104.298 30.1357 104.704 30.1357C105.11 30.1357 105.441 30.4734 105.441 30.8907C105.441 31.308 105.11 31.6471 104.704 31.6471ZM106.367 34.888C106.006 35.1038 105.541 34.9762 105.333 34.6041C105.123 34.232 105.247 33.7573 105.61 33.5436C105.973 33.3278 106.435 33.4554 106.645 33.8276C106.853 34.1997 106.729 34.6744 106.366 34.888H106.367ZM110.551 36.2253C110.001 36.2253 109.554 35.7671 109.554 35.2028C109.554 34.6385 110.001 34.1782 110.551 34.1782C111.101 34.1782 111.55 34.6364 111.55 35.2028C111.55 35.7692 111.103 36.2253 110.551 36.2253ZM108.259 33.1586C105.99 33.0403 105.27 29.618 106.955 28.2105C108.115 27.2396 109.59 27.3049 110.174 28.721C110.185 28.7425 110.194 28.7626 110.198 28.7841C110.229 28.8558 110.254 28.9318 110.277 29.0107C110.267 29.0035 110.257 28.9963 110.247 28.9906C110.252 29.0264 110.254 29.0644 110.254 29.1017C110.254 29.6158 109.848 30.0324 109.347 30.0324C108.847 30.0324 108.438 29.6151 108.438 29.1017C108.438 29.0408 108.443 28.9798 108.455 28.9218C106.668 28.9827 106.556 31.7597 108.439 31.8981C109.813 31.9985 111.424 30.1959 112.613 29.5205C114.626 28.3775 117.455 27.7322 119.57 28.9203C119.813 29.0573 120.003 28.9038 119.912 29.3699C117.356 28.8615 114.679 29.39 112.501 30.8434C111.115 31.7669 110.141 33.259 108.259 33.1586ZM113.853 33.6942C113.301 33.6942 112.855 33.236 112.855 32.6717C112.855 32.1074 113.301 31.6471 113.853 31.6471C114.406 31.6471 114.85 32.1053 114.85 32.6717C114.85 33.2382 114.403 33.6942 113.853 33.6942ZM117.092 31.8558C116.881 31.8178 116.686 31.6866 116.57 31.4801C116.36 31.1101 116.484 30.6333 116.847 30.4196C117.21 30.2038 117.673 30.3314 117.882 30.7035C117.959 30.8405 117.991 30.9911 117.98 31.1366C118.025 31.6199 117.533 32.0228 117.092 31.8558H117.092ZM120.094 30.819C119.91 30.819 119.759 30.6662 119.759 30.4777C119.759 30.2891 119.91 30.1364 120.094 30.1364C120.278 30.1364 120.426 30.2891 120.426 30.4777C120.426 30.6662 120.278 30.819 120.094 30.819Z" fill="white"/>
<path d="M116.719 46.1353C115.524 47.9199 114.685 51.1859 117.882 50.7421C120.03 50.4452 120.976 46.1087 121.985 44.3492C122.508 43.44 123.231 42.6721 123.767 41.7751C121.152 42.1903 118.231 43.8724 116.719 46.1353ZM117.635 48.244C117.441 47.218 118.042 46.4629 119.035 46.4465C118.99 47.3936 118.802 48.5028 117.635 48.244ZM119.035 45.5186C119.035 45.3014 119.207 45.125 119.419 45.125C119.631 45.125 119.803 45.3014 119.803 45.5186C119.803 45.7359 119.631 45.9123 119.419 45.9123C119.207 45.9123 119.035 45.7359 119.035 45.5186ZM120.075 45.1451C119.863 45.1451 119.691 44.9687 119.691 44.7514C119.691 44.5342 119.863 44.3578 120.075 44.3578C120.286 44.3578 120.456 44.5342 120.456 44.7514C120.456 44.9687 120.284 45.1451 120.075 45.1451ZM120.766 44.3779C120.586 44.3779 120.439 44.2266 120.439 44.0416C120.439 43.8566 120.586 43.7053 120.766 43.7053C120.947 43.7053 121.094 43.8566 121.094 44.0416C121.094 44.2266 120.947 44.3779 120.766 44.3779Z" fill="white"/>
<path d="M118.516 10.33C118.321 7.06755 120.169 3.00781 116.795 0.80156C113.301 -1.48213 108.574 1.53005 106.598 4.62253C102.849 10.4949 106.408 16.5909 112.383 18.4874C114.831 19.2647 117.004 19.1048 119.48 19.3937C120.659 19.53 121.795 19.849 122.966 20.014C120.52 17.4406 118.735 13.9817 118.517 10.3307L118.516 10.33ZM112.057 16.7487C108.425 15.1927 105.706 11.3116 107.076 7.18729C108.042 4.27764 112.645 0.41007 115.685 2.14453C118.341 3.66173 116.921 6.71191 116.798 9.07662C116.635 12.2164 117.929 15.8739 120.035 18.1461C117.32 17.7848 114.623 17.8471 112.056 16.7472L112.057 16.7487Z" fill="white"/>
<path d="M117.657 15.6646C116.652 13.5773 116.128 11.1072 116.299 8.7719C116.438 6.84314 117.648 4.27336 115.741 2.81208C113.176 0.846033 108.838 4.45333 107.775 6.86823C105.879 11.1782 109.071 15.1892 112.967 16.5379C114.829 17.1818 116.68 17.3115 118.62 17.4227C118.693 17.3538 117.763 15.884 117.657 15.6638V15.6646ZM115.79 14.4184C114.791 13.9631 114.032 12.1835 115.488 11.8285C116.341 13.1299 115.79 14.4184 115.79 14.4184ZM113.621 11.9304C112.96 10.9394 113.632 9.04939 114.983 9.3405C114.898 11.0205 113.621 11.9304 113.621 11.9304ZM114.738 3.07451C115.139 3.07451 115.463 3.40792 115.463 3.81949C115.463 4.23106 115.138 4.56303 114.738 4.56303C114.337 4.56303 114.012 4.23034 114.012 3.81949C114.012 3.40864 114.337 3.07451 114.738 3.07451ZM112.313 3.46457C112.714 3.46457 113.039 3.79798 113.039 4.20955C113.039 4.62111 112.714 4.95452 112.313 4.95452C111.912 4.95452 111.588 4.62111 111.588 4.20955C111.588 3.79798 111.913 3.46457 112.313 3.46457ZM110.559 4.93445C110.961 4.93445 111.286 5.26786 111.286 5.67942C111.286 6.09099 110.961 6.42297 110.559 6.42297C110.158 6.42297 109.834 6.09027 109.834 5.67942C109.834 5.26857 110.159 4.93445 110.559 4.93445ZM109.208 7.11202C109.609 7.11202 109.934 7.44471 109.934 7.85556C109.934 8.26641 109.609 8.60054 109.208 8.60054C108.807 8.60054 108.482 8.26713 108.482 7.85556C108.482 7.44399 108.807 7.11202 109.208 7.11202ZM109.103 11.1309C108.702 11.1309 108.379 10.7975 108.379 10.3859C108.379 9.97434 108.703 9.64093 109.103 9.64093C109.504 9.64093 109.83 9.97434 109.83 10.3859C109.83 10.7975 109.505 11.1309 109.103 11.1309ZM110.118 13.4454C109.716 13.4454 109.393 13.112 109.393 12.7004C109.393 12.2889 109.717 11.9554 110.118 11.9554C110.518 11.9554 110.844 12.2889 110.844 12.7004C110.844 13.112 110.519 13.4454 110.118 13.4454ZM112.192 15.3519C111.791 15.3519 111.467 15.0192 111.467 14.6084C111.467 14.1975 111.792 13.8634 112.192 13.8634C112.593 13.8634 112.918 14.1968 112.918 14.6084C112.918 15.02 112.593 15.3519 112.192 15.3519ZM116.498 15.6603C113.87 15.182 111.01 12.5491 110.956 9.68753C110.93 8.26999 111.562 6.56924 112.874 5.92034C113.352 5.68373 113.93 5.62565 114.416 5.84577C114.901 6.06589 115.263 6.59218 115.224 7.13568C115.184 7.67272 114.768 8.13018 114.274 8.3123C113.935 8.43778 113.521 8.43778 113.253 8.19184C112.939 7.9036 112.97 7.3135 113.314 7.06254C113.666 6.80585 114.187 6.98726 114.378 7.36297C114.58 7.13209 114.475 6.75423 114.246 6.58716C114.007 6.41221 113.681 6.41866 113.401 6.51044C110.92 7.32856 111.794 11.2772 113.025 12.7793C113.925 13.8763 115.177 14.5833 116.308 15.3921C116.429 15.4781 116.557 15.3957 116.498 15.6595V15.6603Z" fill="white"/>
<path d="M113.714 6.45527C113.729 6.45381 113.742 6.45381 113.757 6.45381C113.735 6.45381 113.713 6.45527 113.69 6.45746C113.698 6.45527 113.706 6.45527 113.714 6.45527Z" fill="white"/>
<path d="M113.857 6.45771C113.903 6.46133 113.948 6.47004 113.991 6.4802C113.948 6.47004 113.903 6.46279 113.857 6.45771Z" fill="white"/>
<path d="M162.668 104.673C162.05 98.2874 162.496 91.2743 162.772 84.3601H147.373C146.332 89.1032 143.286 93.7545 138.532 95.1512C135.833 95.9442 132.729 95.41 130.469 93.6835C127.556 91.4579 127.013 87.8678 127.203 84.3601H120.358C119.774 92.6137 119.503 100.998 126.313 106.83C130.553 110.461 135.583 111.361 140.949 111.356C144.218 111.354 146.967 110.853 149.475 108.561C150.873 107.761 152.18 106.794 153.354 105.669C153.685 108.065 154.227 110.14 157.27 110.457C159.81 110.723 162.009 110.128 164.345 109.226C163.653 107.723 162.835 106.395 162.668 104.673ZM141.414 97.5346C142.37 97.5346 143.145 98.329 143.145 99.3099C143.145 100.291 142.37 101.088 141.414 101.088C140.458 101.088 139.683 100.291 139.683 99.3099C139.683 98.3283 140.457 97.5346 141.414 97.5346ZM138.493 101.607C139.18 101.607 139.735 102.177 139.735 102.881C139.735 103.585 139.18 104.158 138.493 104.158C137.806 104.158 137.249 103.586 137.249 102.881C137.249 102.176 137.806 101.607 138.493 101.607ZM135.58 98.8682C136.091 98.8682 136.505 99.2941 136.505 99.8168C136.505 100.34 136.091 100.766 135.58 100.766C135.069 100.766 134.655 100.342 134.655 99.8168C134.655 99.292 135.07 98.8682 135.58 98.8682ZM132.047 108.097C131.343 108.097 130.772 107.511 130.772 106.789C130.772 106.067 131.343 105.48 132.047 105.48C132.752 105.48 133.323 106.066 133.323 106.789C133.323 107.512 132.752 108.097 132.047 108.097ZM133.758 103.398C132.207 101.102 131.045 97.8723 128.142 97.8852C125.647 97.8959 123.993 101.104 125.771 103.027C126.846 104.19 129.511 103.899 128.931 102.03C126.572 102.986 127.005 99.2977 129.173 100.437C131.044 101.422 129.831 104.723 127.791 104.909C122.959 105.344 122.713 96.3335 128.671 96.9989C131.142 97.2736 132.261 99.2762 133.403 101.262C134.399 102.995 135.409 104.715 137.342 105.268C137.451 105.766 137.097 105.662 136.73 105.626C135.446 105.502 134.551 104.573 133.758 103.398ZM144.444 107.609C142.449 109.35 140.139 110.065 137.752 109.677C136.979 109.551 136.198 109.31 135.418 108.951C135.678 108.723 135.942 108.493 136.215 108.263C138.397 106.433 141.011 104.686 143.825 104.549C143.749 104.819 143.469 104.989 143.248 105.124C141.938 105.932 140.336 106.413 138.933 107.35C138.376 107.722 137.836 108.135 137.342 108.593C140.491 109.646 143.422 107.47 145.925 105.805C146.108 106.009 144.655 107.421 144.444 107.609ZM149.57 107.657C149.018 107.657 148.571 107.198 148.571 106.634C148.571 106.07 149.018 105.612 149.57 105.612C150.121 105.612 150.566 106.07 150.566 106.634C150.566 107.198 150.12 107.657 149.57 107.657ZM145.228 103.559C144.305 103.286 143.127 102.899 142.598 102.033C143.103 102.144 143.638 102.202 144.189 102.209C146.942 102.25 150.087 101.036 151.811 98.9399C151.994 98.7191 152.161 98.4867 152.31 98.2465C152.827 97.4105 153.293 96.1256 152.713 95.6058C152.505 95.4194 152.163 95.329 151.639 95.3957C150.845 95.4946 150.483 96.0876 149.782 96.2798C149.328 93.7674 151.548 92.7055 152.999 93.4762C153.682 93.8412 154.195 94.612 154.176 95.8309C154.135 98.3627 152.161 100.351 150.006 101.622C149.237 102.076 148.446 102.44 147.713 102.704C147.453 102.797 147.274 102.64 147.313 103.004C147.317 103.034 147.322 103.07 147.329 103.109C154.351 103.232 157.841 96.0087 156.212 89.5936C156.037 88.9053 155.022 86.4036 154.391 86.2366C154.192 86.1842 153.752 86.3965 153.226 86.7327C152.101 87.4447 150.587 88.7081 150.215 89.0853C147.509 91.8242 145.868 96.084 148.03 99.6928C146.141 99.5114 145.976 96.857 146.124 95.3132C146.486 91.5174 149.007 88.6106 151.904 86.5047C152.11 86.3534 152.662 85.9526 153.209 85.6056C153.773 85.2478 154.332 84.9481 154.507 85.0377C155.334 85.4622 156.669 88.075 156.955 89.0114C159.339 96.819 153.834 106.101 145.228 103.559ZM160.07 105.729C160.061 106.431 159.963 108.671 158.969 108.417C157.889 107.365 159.624 106.214 159.854 105.12C160.149 105.051 160.072 105.533 160.07 105.729ZM160.272 100.039C160.251 101.515 160.067 102.572 159.225 103.811C159.058 104.057 157.618 105.686 157.42 105.485C157.267 103.963 157.209 102.362 157.603 100.869C157.686 100.555 158.777 97.9519 159.18 98.3226C158.781 100.023 158.05 101.651 158.15 103.447C159.155 102.369 159.76 100.929 160.148 99.5099C160.488 99.4475 160.275 99.8505 160.272 100.039Z" fill="white"/>
<path d="M127.378 80.8049H120.733C120.817 73.896 120.883 67.0631 120.899 60.3642H127.399L127.378 80.8049Z" fill="white"/>
<path d="M127.409 81.7675C127.36 82.2723 127.312 82.7778 127.274 83.2826H120.434C120.471 82.7757 120.507 82.2709 120.542 81.7675H127.409Z" fill="white"/>
<path d="M162.862 81.7675C162.848 82.2709 162.831 82.7757 162.811 83.2826H147.582C147.666 82.7792 147.735 82.2745 147.787 81.7675H162.862H162.862Z" fill="white"/>
<path d="M162.943 76.5778C162.889 76.4975 162.834 76.4165 162.779 76.3355C162.291 75.6184 161.813 74.9301 161.341 74.2705C155.971 66.7411 151.61 62.7782 148.446 60.6952C148.415 60.6737 148.385 60.6536 148.357 60.6379C148.2 60.5411 148.038 60.4457 147.877 60.3539V75.992C147.94 77.2826 147.954 78.5568 147.919 79.7864C147.91 80.0862 147.896 80.3866 147.877 80.6884H162.894C162.931 79.306 162.95 77.9351 162.943 76.5778ZM151.555 68.2461L149.279 70.9378C149.217 69.27 149.697 68.0052 151.555 68.2461ZM149.103 77.0489C148.781 74.7179 149.638 72.6744 151.208 71.0331C151.376 70.8589 151.436 70.6918 151.73 70.76C151.583 73.0609 150.988 75.6005 149.103 77.0489ZM150.742 78.3072C150.371 78.3123 150.472 76.8388 150.489 76.5226L152.056 76.3355C152.353 76.6323 150.938 77.9688 150.742 78.3072ZM155.241 70.3556L156.806 70.1548C157.107 70.4495 155.702 71.7989 155.509 72.1388C154.009 75.7425 155.226 70.6718 155.241 70.3556ZM155.362 77.9186C155.49 75.6184 156.401 73.8123 158.274 72.3453C158.616 74.6749 157.438 75.987 155.88 77.6419C155.715 77.8182 155.658 77.9853 155.362 77.9186ZM157.298 79.3964L160.343 75.1402C160.417 76.7886 159.138 79.6172 157.298 79.3964Z" fill="white"/>
<path d="M149.199 57.7338C150.567 58.7921 152.104 60.0232 153.679 61.3662C152.281 60.1423 150.767 58.8968 149.199 57.7338Z" fill="white"/>
<path d="M162.675 70.2026C162.317 66.2196 161.267 62.1878 160.151 58.3676C158.852 53.9242 157.018 49.4386 153.583 46.2773C146.331 39.6033 141.413 31.3282 137.694 22.1806C137.305 22.0228 137.444 22.5957 137.433 22.808C136.895 33.3309 131.073 44.2732 124.818 52.3755C130.842 50.7091 138.854 46.6437 144.443 51.3853C145.738 52.483 146.734 53.9106 147.432 55.488C147.826 56.3764 148.438 57.1451 149.198 57.733C154.295 61.6723 159.158 65.8718 162.748 71.3168C162.741 70.9454 162.709 70.574 162.675 70.2026ZM155.348 61.3747C155.286 60.515 155.179 59.6797 155.01 58.9713C154.992 58.9914 154.975 59.0093 154.956 59.0272L154.934 58.6823C154.796 58.1948 154.622 57.7853 154.405 57.4921C152.931 55.5167 150.272 53.8991 148.536 51.6513C145.883 48.2146 144.923 44.4023 141.431 41.5055C140.816 40.9965 138.763 39.5481 138.104 39.3466C137.856 39.2713 137.799 39.3524 137.856 39.6004C138.222 41.2395 140.084 43.1016 141.522 43.8416V44.1979C138.22 43.6745 137.791 41.9207 136.972 39.0663C136.899 38.806 137.074 38.7536 136.62 38.806L132.413 46.8918C135.668 45.7001 140.035 43.4479 143.101 46.1726C138.462 44.9257 133.927 46.924 129.962 49.2299L133.495 43.4193C135.889 38.7264 138.171 33.8722 138.898 28.5613L140.498 32.398C142.321 36.5467 144.991 40.1755 148.007 43.4766C146.511 43.1446 145.114 41.5271 144.156 40.3282C142.097 37.7455 140.608 34.762 139.157 31.7965L137.13 37.7993C139.341 38.8884 141.543 40.1289 143.282 41.9458C145.824 44.6038 146.878 48.0418 149.065 50.9285C150.605 52.9634 152.678 54.8879 154.663 56.4194C154.561 52.8136 154.071 48.4591 150.286 47.0732L152.007 50.6088C152.312 51.358 153.347 52.44 153.612 53.0961C153.654 53.2022 153.643 53.4001 153.526 53.3621C150.907 51.5846 149.957 48.353 148.532 45.6355C149.876 45.3659 151.28 46.2163 152.294 47.0789C154.279 48.7646 154.998 50.925 155.341 53.479C155.414 54.0268 155.486 54.5753 155.555 55.1252C155.739 55.772 155.843 56.4625 155.791 57.1185C155.973 58.7612 156.113 60.4096 156.178 62.0573L155.348 61.3747ZM157.119 58.9354L156.769 53.1843C157.019 53.2725 157.277 53.8439 157.378 54.0827C158.02 55.5927 158.393 57.6699 157.119 58.9354Z" fill="white"/>
</svg>
