<svg width="257" height="309" viewBox="0 0 257 309" fill="none" xmlns="http://www.w3.org/2000/svg">
<path d="M176.771 163.417C215.172 145.442 247.519 180.484 247.519 180.484C252.468 169.673 242.239 153.606 233.933 147.31C221.838 138.121 193.457 122.012 154.061 145.66L129.944 157.122C129.944 157.122 100.031 196.342 72.1803 202.361C44.3301 208.381 -9.59305 166.808 -9.59305 166.808C29.3483 278.9 138.355 181.407 176.771 163.417Z" fill="#F39200" stroke="#111418" stroke-width="0.375471" stroke-miterlimit="10"/>
<path d="M109.896 134.845C125.53 92.5772 168.622 92.1083 168.684 92.1111C169.638 92.093 171.639 99.4701 171.823 100.155C173.733 106.821 174.24 113.915 172.962 120.728C171.157 130.345 165.825 138.741 158.715 145.35C146.26 156.927 133.016 167.608 120.607 179.202C108.694 190.343 95.52 200.842 80.4394 207.288C56.878 217.361 29.6631 217.184 9.58239 199.731C-0.26692 191.198 -6.31816 179.255 -9.5629 166.78C-9.5629 166.78 36.4932 201.862 50.8856 195.338C65.2779 188.814 95.6842 158.701 95.6842 158.701L109.898 134.814L109.896 134.845Z" fill="#CC2E0E" stroke="#111418" stroke-width="0.465584" stroke-miterlimit="10"/>
<path d="M68.2055 119.42C72.8502 85.5682 94.9411 74.3679 94.9411 74.3679C94.9411 74.3679 119.093 85.1043 114.266 128.033C109.454 170.977 82.268 196.533 53.2925 199.581C24.317 202.628 3.25172 185.192 -9.59278 166.808C-9.59278 166.808 17.1628 185.194 42.1744 181.09C67.186 176.986 64.9241 125.327 64.9241 125.327L68.1909 119.404L68.2055 119.42Z" fill="#F39200" stroke="#111418" stroke-width="0.375471" stroke-miterlimit="10"/>
<path d="M22.5002 70.9036C20.5172 72.5965 29.3812 84.2054 30.3943 85.2507C35.3719 90.3806 42.152 92.718 47.8988 96.8222C63.1448 107.692 74.5056 125.578 76.4797 144.36C79.0353 168.609 62.732 192.139 36.7548 188.744C20.0987 186.572 3.39809 177.266 -9.59304 166.838C-9.59304 166.838 27.5023 183.312 37.9554 168.77C50.1997 151.68 28.3563 135.807 18.7643 123.981C5.63808 107.735 6.14419 84.778 22.5002 70.9036Z" fill="#CC2E0E" stroke="#111418" stroke-width="0.465584" stroke-miterlimit="10"/>
</svg>
