<svg width="235" height="297" viewBox="0 0 235 297" fill="none" xmlns="http://www.w3.org/2000/svg">
<path d="M77.0222 139.243C40.1561 156.5 9.10228 122.858 9.10228 122.858C4.35063 133.237 14.171 148.662 22.1453 154.707C33.7565 163.528 61.0032 178.993 98.8254 156.29L121.978 145.287C121.978 145.287 150.696 107.634 177.433 101.855C204.171 96.076 255.939 135.987 255.939 135.987C218.554 28.3749 113.904 121.972 77.0222 139.243Z" fill="#F39200" stroke="#111418" stroke-width="0.375471" stroke-miterlimit="10"/>
<path d="M141.225 166.673C126.216 207.252 84.8455 207.702 84.7866 207.699C83.8709 207.717 81.9499 200.634 81.7732 199.977C79.9392 193.578 79.4521 186.767 80.6793 180.226C82.4126 170.994 87.531 162.933 94.357 156.588C106.314 145.473 119.029 135.22 130.942 124.089C142.379 113.393 155.026 103.314 169.504 97.1251C192.124 87.4549 218.251 87.6249 237.53 104.38C246.985 112.573 252.795 124.038 255.91 136.015C255.91 136.015 211.694 102.335 197.877 108.598C184.06 114.861 154.869 143.771 154.869 143.771L141.223 166.703L141.225 166.673Z" fill="#CC2E0E" stroke="#111418" stroke-width="0.465584" stroke-miterlimit="10"/>
<path d="M181.25 181.481C176.791 213.981 155.582 224.733 155.582 224.733C155.582 224.733 132.395 214.426 137.029 173.213C141.649 131.985 167.749 107.45 195.567 104.525C223.384 101.599 243.607 118.338 255.939 135.988C255.939 135.988 230.252 118.336 206.24 122.276C182.228 126.216 184.4 175.81 184.4 175.81L181.264 181.497L181.25 181.481Z" fill="#F39200" stroke="#111418" stroke-width="0.375471" stroke-miterlimit="10"/>
<path d="M225.128 228.059C227.032 226.433 218.522 215.288 217.55 214.285C212.771 209.36 206.262 207.116 200.745 203.176C186.108 192.741 175.201 175.569 173.306 157.538C170.853 134.258 186.505 111.668 211.443 114.927C227.434 117.012 243.467 125.947 255.939 135.958C255.939 135.958 220.326 120.142 210.291 134.104C198.536 150.51 219.506 165.749 228.715 177.103C241.317 192.699 240.831 214.739 225.128 228.059Z" fill="#CC2E0E" stroke="#111418" stroke-width="0.465584" stroke-miterlimit="10"/>
</svg>
